<svg width="1280" height="760" viewBox="0 0 1280 760" fill="none" xmlns="http://www.w3.org/2000/svg">
  <defs>
    <linearGradient id="bg" x1="0" y1="0" x2="1280" y2="760"><stop stop-color="#071421"/><stop offset="1" stop-color="#101C29"/></linearGradient>
    <filter id="shadow" x="20" y="20" width="1240" height="720"><feDropShadow dx="0" dy="22" stdDeviation="28" flood-color="#000" flood-opacity=".35"/></filter>
  </defs>
  <rect width="1280" height="760" rx="32" fill="url(#bg)"/>
  <rect x="48" y="42" width="1184" height="676" rx="24" fill="#091726" stroke="#24384B" filter="url(#shadow)"/>
  <g font-family="Segoe UI, Microsoft YaHei, Arial, sans-serif">
    <text x="82" y="94" fill="#F1F6FC" font-size="26" font-weight="700">市场风格</text><text x="82" y="121" fill="#8193A7" font-size="14">独立强弱、相对偏好与资金轮动</text>
    <rect x="1026" y="76" width="158" height="36" rx="18" fill="#132A3E" stroke="#28445E"/><circle cx="1048" cy="94" r="5" fill="#64A45E"/><text x="1061" y="100" fill="#AFC1D4" font-size="13">覆盖率 95.8%</text>
    <g><rect x="82" y="150" width="344" height="178" rx="16" fill="#102235" stroke="#294058"/><text x="108" y="187" fill="#8FA3B7" font-size="16" font-weight="700">小登</text><text x="108" y="238" fill="#67A965" font-size="42" font-weight="750">52</text><text x="185" y="236" fill="#90A2B5" font-size="14">AI 硬件 · 中性</text><text x="108" y="273" fill="#7E91A5" font-size="13">半导体 · 算力基础设施 · 光通信</text><rect x="108" y="294" width="286" height="5" rx="3" fill="#23384C"/><rect x="108" y="294" width="149" height="5" rx="3" fill="#67A965"/></g>
    <g><rect x="468" y="150" width="344" height="178" rx="16" fill="#132B48" stroke="#438EF0" stroke-width="2"/><text x="494" y="187" fill="#A8C9F4" font-size="16" font-weight="700">中登</text><text x="494" y="238" fill="#438EF0" font-size="42" font-weight="750">75</text><text x="571" y="236" fill="#D7E7FB" font-size="14">当前相对占优</text><text x="494" y="273" fill="#91A9C4" font-size="13">机器人 · 创新医药 · 商业航天</text><rect x="494" y="294" width="286" height="5" rx="3" fill="#233D59"/><rect x="494" y="294" width="215" height="5" rx="3" fill="#438EF0"/></g>
    <g><rect x="854" y="150" width="330" height="178" rx="16" fill="#102235" stroke="#294058"/><text x="880" y="187" fill="#8FA3B7" font-size="16" font-weight="700">老登</text><text x="880" y="238" fill="#D84B5D" font-size="42" font-weight="750">59</text><text x="957" y="236" fill="#90A2B5" font-size="14">大盘价值 · 中性</text><text x="880" y="273" fill="#7E91A5" font-size="13">红利 · 金融 · 消费 · 能源</text><rect x="880" y="294" width="278" height="5" rx="3" fill="#23384C"/><rect x="880" y="294" width="164" height="5" rx="3" fill="#D84B5D"/></g>
    <rect x="82" y="354" width="1102" height="316" rx="16" fill="#0E2032" stroke="#263B50"/><text x="108" y="393" fill="#E5EDF6" font-size="19" font-weight="700">今日风格走势</text><text x="108" y="417" fill="#7E91A5" font-size="12">全天交易时间 · 纵轴随三条曲线自适应</text>
    <g stroke="#24394D"><line x1="132" y1="458" x2="1148" y2="458"/><line x1="132" y1="518" x2="1148" y2="518"/><line x1="132" y1="578" x2="1148" y2="578"/><line x1="132" y1="626" x2="1148" y2="626"/><line x1="132" y1="448" x2="132" y2="626"/><line x1="433" y1="448" x2="433" y2="626"/><line x1="706" y1="448" x2="706" y2="626"/><line x1="1148" y1="448" x2="1148" y2="626"/></g>
    <polyline points="132,568 235,548 330,560 433,534 548,544 706,526 820,542 960,514 1148,520" fill="none" stroke="#67A965" stroke-width="4" stroke-linecap="round" stroke-linejoin="round"/><polyline points="132,552 235,530 330,518 433,526 548,492 706,478 820,486 960,462 1148,470" fill="none" stroke="#438EF0" stroke-width="4" stroke-linecap="round" stroke-linejoin="round"/><polyline points="132,536 235,558 330,546 433,566 548,552 706,574 820,558 960,582 1148,566" fill="none" stroke="#D84B5D" stroke-width="4" stroke-linecap="round" stroke-linejoin="round"/>
    <g fill="#74879B" font-size="11"><text x="116" y="649">09:30</text><text x="414" y="649">11:30</text><text x="687" y="649">13:00</text><text x="1122" y="649">15:00</text></g>
    <g font-size="12" font-weight="650"><circle cx="858" cy="395" r="4" fill="#67A965"/><text x="868" y="400" fill="#A8B8C8">小登</text><circle cx="920" cy="395" r="4" fill="#438EF0"/><text x="930" y="400" fill="#A8B8C8">中登</text><circle cx="982" cy="395" r="4" fill="#D84B5D"/><text x="992" y="400" fill="#A8B8C8">老登</text></g>
  </g>
</svg>
